<svg viewBox="0 0 242.1 124" height="50" xmlns="http://www.w3.org/2000/svg">
 <g>
  <title>Layer 1</title>
  <path stroke-width="0" id="svg_6" d="m35.81481,39.55555c0,0 -24.44444,53.11111 -24.48148,52.88889c0.03704,0.22222 -1.51852,5.33333 -1.55556,5.11111c0.03704,0.22222 4.25926,5.11111 4.22222,4.88889c0.03704,0.22222 1.81482,-2 1.77778,-2.22222c0.03704,0.22222 17.81481,-39.11111 17.77778,-39.33333c0.03704,0.22222 -0.85185,24.88889 -0.88889,24.66667c0.03704,0.22222 2.7037,10 2.7037,10.22222c0,0.22222 5.77778,2 5.77778,2c0,0 4.44444,-4.44444 4.40741,-4.66666c0.03704,0.22222 10.25926,-25.11111 10.22222,-25.33333c0.03704,0.22222 11.14815,-33.11111 11.11111,-33.33333c0.03704,0.22222 -4.18519,-4.44445 -4.22222,-4.66667c0.03704,0.22222 -3.51852,4.22222 -3.55556,4c0.03704,0.22222 -7.51852,23.55555 -7.51852,23.55555c0,0 -5.11111,14.66667 -5.14815,14.44445c0.03704,0.22222 -4.40741,11.33333 -4.44444,11.11111c0.03704,0.22222 -1.51852,0.66666 -1.55556,0.44444c0.03704,0.22222 0.48148,-15.77778 0.44444,-16c0.03704,0.22222 2.48148,-14.88889 2.44444,-15.11111c0.03704,0.22222 0.03704,-8 0.03704,-8c0,0 -1.33333,-5.33333 -1.37037,-5.55555c0.03704,0.22222 -3.51852,-0.66667 -3.55556,-0.88889c0.03704,0.22222 -2.62963,1.77778 -2.62963,1.77778z" opacity="NaN" stroke="#000" fill="#000000"/>
  <path stroke-width="0" id="svg_7" d="m73.81481,84.88888c-0.15267,1.98473 -5.77778,5.77778 -5.81481,5.55556c-1.48968,1.74894 -5.74074,0.88889 -5.74074,0.88889c-1.98473,0.15267 -5.33333,-3.33333 -5.37037,-3.55555c-1.33701,-3.13656 -1.51852,-7.11111 -1.55556,-7.33333c0.34238,-3.74725 3.59259,-10.22222 3.55556,-10.44444c2.9378,-5.27396 7.81481,-10 7.77778,-10.22222c4.61719,-3.13656 8.25926,-3.33334 8.22222,-3.55556c4.61719,1.44359 4.8428,2.61238 5.14815,4.66666c0.30534,2.05428 0.24484,4.22392 -0.48148,6.88889c-0.72632,2.66497 -2.85185,6 -2.88889,5.77778c-1.48968,1.74894 -3.94034,1.61154 -4.66667,2.44444c-0.72632,0.83291 -5.51852,0.44444 -5.55556,0.22222c0.03704,0.22222 -3.51852,-1.33334 -3.55556,-1.55556c0.03704,0.22222 0.25926,-3.33334 0.22222,-3.55556c0.03704,0.22222 2.7037,-1.33334 2.7037,-1.33334c0,0 3.8609,1.25021 3.82386,1.02799c1.56375,-0.2358 4.17614,-1.91688 4.17614,-1.91688c1.22137,-1.52672 1.4255,-4.63952 0.85185,-5.33333c-0.57365,-0.69381 -0.40006,-2.54113 -3.11111,-1.55556c-2.71105,0.98558 -3.96296,4 -4,3.77778c0.03704,0.22222 -6.18519,11.55555 -6.22222,11.33333c-0.33786,2.31891 0.48148,4.88889 0.48148,4.88889c1.52672,4.73282 2.66667,4.44444 2.66667,4.44444c2.59542,-0.15267 6,-4.66667 6,-4.44444c0,0.22222 3.33333,-1.11111 3.33333,-0.88889c0,0.22222 0.88889,2.22222 0.85185,2c0.03704,0.22222 0.06418,-0.20696 -0.85185,1.77777z" opacity="NaN" stroke="#000" fill="#000000"/>
  <path id="svg_9" d="m93.04168,57.2049c-4.16543,0.9997 -7.0998,7.1472 -8.26612,10.14631c-1.16632,2.99911 -3.74889,8.74741 -4.7486,12.16307c-0.9997,3.41566 -0.33323,5.16514 2.16603,7.49778c2.49926,2.33264 6.83131,0.24993 8.16425,-0.58316c1.33294,-0.83309 4.49867,-3.8322 6.49808,-6.49808c1.99941,-2.66588 2.60576,-3.91551 3.88545,-7.58109c1.27969,-3.66558 1.23502,-3.34094 1.31833,-6.67328c0.08331,-3.33235 -0.31433,-5.06036 -2.48036,-6.47661c-2.16603,-1.41625 -3.37065,-1.36008 -4.0117,-1.1981c-0.64105,0.16198 -2.09854,-0.65907 -2.34846,1.50696c-0.24993,2.16603 0.64569,1.53889 2.83835,2.92387c2.19265,1.38498 2.48036,3.08346 2.27905,5.55609c-0.20131,2.47263 -1.03405,5.3874 -2.36699,7.47012c-1.33294,2.08272 -3.67521,5.06465 -5.60419,6.79094c-1.92898,1.72629 -4.83945,2.32371 -6.03119,0.31503c-1.19174,-2.00869 0.56924,-6.87339 1.73557,-9.62258c1.16632,-2.74919 3.12176,-7.17383 4.28808,-8.67338c1.16632,-1.49956 3.32307,-3.55787 4.48939,-4.55757c1.16632,-0.9997 2.34192,0.9753 1.34222,-0.9408c-0.9997,-1.9161 -2.47142,-1.32951 -3.55444,-1.57944" opacity="NaN" stroke-width="2" stroke="#000" fill="#000000"/>
  <path id="svg_11" d="m124.64936,33.03412c-1.68303,1.12202 -11.78121,21.45862 -14.72651,31.41655c-2.9453,9.95792 -4.20757,22.44039 -3.78682,25.38569c0.42076,2.9453 3.50631,5.8906 6.73212,3.64656c3.22581,-2.24404 6.45161,-6.59187 6.73212,-6.73212c0.2805,-0.14025 0.84151,6.59187 3.64656,7.15287c2.80505,0.56101 8.13464,-2.52454 14.02525,-10.51893c5.8906,-7.99439 12.48247,-20.61711 15.56802,-26.22721c3.08555,-5.6101 6.59187,-13.74474 7.15287,-17.67181c0.56101,-3.92707 -0.42076,-9.11641 -1.96353,-9.25666c-1.54278,-0.14025 -3.29592,1.67369 -4.03225,2.44975c-0.73633,0.77606 -0.03507,3.58111 -2.55961,10.17297c-2.52454,6.59187 -6.17111,13.32398 -8.27489,16.97055c-2.10379,3.64656 -6.17111,10.37868 -8.41515,13.88499c-2.24404,3.50631 -6.73212,7.85414 -7.01262,7.71388c-0.2805,-0.14025 3.08555,-10.79944 3.92707,-12.48247c0.84151,-1.68303 4.20757,-9.67742 4.76858,-12.06171c0.56101,-2.38429 1.47266,-5.75969 1.57785,-6.80691c0.10518,-1.04722 -1.85835,-3.01076 -1.96353,-3.08555c0.10518,0.07479 -2.06872,-0.77606 -3.08555,0.2805c-1.01684,1.05656 -2.48947,4.69379 -4.34783,9.53717c-1.85835,4.84338 -5.22441,10.31322 -6.48668,12.69752c-1.26227,2.38429 -3.22581,5.8906 -4.48808,8.13464c-1.26227,2.24404 -3.22581,5.18934 -3.92707,5.18934c-0.70126,0 0.70126,-8.41515 1.82328,-12.06171c1.12202,-3.64656 3.36606,-11.64095 6.17111,-16.69004c2.80505,-5.04909 5.6101,-11.2202 7.71388,-14.72651c2.10379,-3.50631 1.82328,-3.36606 1.26227,-5.32959c-0.56101,-1.96353 -2.9453,-2.38429 -3.64656,-2.38429c-0.70126,0 -0.70126,0.2805 -2.38429,1.40252z" opacity="NaN" stroke-width="0" stroke="#000" fill="#000000"/>
  <path id="svg_12" d="m176.81698,59.1943" opacity="NaN" stroke-width="0" stroke="#000" fill="#000000"/>
  <path id="svg_13" d="m176.35199,57.79974c-0.97895,-3.79341 -2.6921,-5.26183 -4.89473,-5.13946c-2.20263,0.12237 -7.83156,3.79341 -10.89077,7.21972c-3.0592,3.42631 -8.93288,10.89077 -8.81051,16.03023c0.12237,5.13946 0.61184,9.17761 5.01709,7.95393c4.40525,-1.22368 6.60788,-2.81447 8.81051,-4.89473c2.20263,-2.08026 1.71315,-1.22368 1.71315,-1.22368c0,0 0.24474,2.32499 3.18157,3.54868c2.93684,1.22368 5.3842,0.3671 6.24078,0.3671c0.85658,0 2.93684,-1.46842 4.03815,-4.77236c1.10131,-3.30394 0.3671,-3.54868 0.12237,-4.64999c-0.24474,-1.10131 -1.34605,-1.46842 -2.20263,-1.59079c-0.85658,-0.12237 -0.3671,1.59079 -1.10131,4.16052c-0.73421,2.56973 -2.93684,3.18157 -3.67104,3.0592c-0.73421,-0.12237 -0.85658,-2.93684 -0.12237,-4.40525c0.73421,-1.46842 1.10131,-2.32499 2.56973,-5.87367c1.46842,-3.54868 1.59079,-5.7513 1.46842,-7.34209c-0.12237,-1.59079 -1.10131,-3.42631 -2.44736,-3.0592c-1.34605,0.3671 -2.56973,3.42631 -2.93684,5.13946c-0.3671,1.71315 -2.6921,6.48551 -5.99604,9.91182c-3.30394,3.42631 -5.62894,5.3842 -7.70919,6.11841c-2.08026,0.73421 -2.44736,-4.52762 -0.97895,-6.97498c1.46842,-2.44736 5.01709,-6.36314 6.97498,-8.19867c1.95789,-1.83552 9.05524,-5.7513 11.01313,-6.85262" opacity="NaN" stroke-width="2" stroke="#000" fill="#000000"/>
  <path id="svg_14" d="m191.77599,50.19455c-1.43941,1.59934 -6.87716,17.11294 -7.67683,19.03215c-0.79967,1.91921 -2.07914,5.91756 -1.75927,8.4765c0.31987,2.55894 3.67848,2.23908 4.95796,1.11954c1.27947,-1.11954 4.63809,-6.87716 6.71723,-10.07584c2.07914,-3.19868 2.23908,-3.99835 5.75763,-4.31822c3.51855,-0.31987 2.71888,4.31822 2.23908,6.5573c-0.4798,2.23908 -0.9596,4.15828 0.31987,5.91756c1.27947,1.75927 0.63974,1.91921 3.51855,1.27947c2.87881,-0.63974 3.83842,-0.9596 3.83842,-2.39901c0,-1.43941 -3.51855,-0.9596 -3.03875,-3.99835c0.4798,-3.03875 1.43941,-7.5169 1.27947,-10.39571c-0.15993,-2.87881 -0.63974,-5.11789 -3.03875,-6.23743c-2.39901,-1.11954 -3.99835,-0.63974 -7.0371,1.91921c-3.03875,2.55894 -2.71888,3.35861 -4.47815,5.75763c-1.75927,2.39901 -1.91921,2.23908 -2.39901,3.03875c-0.4798,0.79967 5.59769,-9.59604 5.75763,-11.35532c0.15993,-1.75927 0,-3.35861 -1.27947,-4.47815c-1.27947,-1.11954 -2.23908,-1.43941 -3.67848,0.15993z" opacity="NaN" stroke-width="2" stroke="#000" fill="#000000"/>
  <path id="svg_15" d="m228.72076,47.95547c-3.51855,1.75927 -9.75598,6.87716 -13.27452,11.83512c-3.51855,4.95796 -4.47815,9.91591 -3.51855,11.83512c0.9596,1.91921 3.83842,3.67848 5.11789,3.35861c1.27947,-0.31987 4.79802,-1.27947 5.11789,-1.75927c0.31987,-0.4798 0.31987,4.47815 -2.07914,8.95631c-2.39901,4.47815 -3.99835,6.87716 -5.11789,7.19703c-1.11954,0.31987 -2.71888,-1.91921 -3.67848,-3.35861c-0.9596,-1.43941 -3.19868,-1.75927 -3.67848,-0.9596c-0.4798,0.79967 -1.75927,2.07914 -0.79967,4.63809c0.9596,2.55894 3.51855,6.23743 6.39736,6.87716c2.87881,0.63974 6.07749,-0.31987 7.67683,-2.55894c1.59934,-2.23908 6.23743,-12.63479 7.67683,-16.79307c1.43941,-4.15828 2.23908,-7.83677 3.51855,-10.71558c1.27947,-2.87881 1.59934,-3.83842 3.19868,-5.75763c1.59934,-1.91921 2.87881,-4.15828 2.71888,-4.95796c-0.15993,-0.79967 -0.63974,-3.67848 -3.03875,-2.87881c-2.39901,0.79967 -3.35861,4.47815 -4.63809,6.07749c-1.27947,1.59934 -3.19868,4.15828 -5.11789,5.91756c-1.91921,1.75927 -3.35861,3.03875 -5.59769,3.99835c-2.23908,0.9596 -3.51855,-1.75927 -1.91921,-3.35861c1.59934,-1.59934 4.15828,-5.59769 6.39736,-7.5169c2.23908,-1.91921 3.99835,-2.71888 5.27782,-3.67848c1.27947,-0.9596 2.39901,-1.43941 4.31822,-2.23908c1.91921,-0.79967 2.55894,-2.07914 2.87881,-3.03875c0.31987,-0.9596 -0.79967,-3.35861 -1.91921,-3.51855c-1.11954,-0.15993 -2.39901,0.63974 -5.91756,2.39901z" opacity="NaN" stroke-width="2" stroke="#000" fill="#000000"/>
 </g>
</svg>